Coordinates
version=1
nRows=13
nColumns=40
inDegrees=yes

Units are S.I. units (second, meters, Newtons, ...)
Angles are in degrees.

endheader
time	pelvis_tilt	pelvis_list	pelvis_rotation	pelvis_tx	pelvis_ty	pelvis_tz	hip_flexion_r	hip_adduction_r	hip_rotation_r	knee_angle_r	knee_angle_r_beta	ankle_angle_r	subtalar_angle_r	mtp_angle_r	hip_flexion_l	hip_adduction_l	hip_rotation_l	knee_angle_l	knee_angle_l_beta	ankle_angle_l	subtalar_angle_l	mtp_angle_l	lumbar_extension	lumbar_bending	lumbar_rotation	arm_flex_r	arm_add_r	arm_rot_r	elbow_flex_r	pro_sup_r	wrist_flex_r	wrist_dev_r	arm_flex_l	arm_add_l	arm_rot_l	elbow_flex_l	pro_sup_l	wrist_flex_l	wrist_dev_l
     11.23250000	     -2.92156248	     -2.42145345	      3.14690283	      0.72196406	      0.92160481	      0.44354921	      3.93488624	     -2.67959684	     -9.23996619	     33.33093356	     33.33093356	     15.19185820	     -7.77441823	    -11.79045380	     23.87051413	     -3.34825264	     -0.01096038	     27.09463951	     27.09463951	      9.50356208	    -12.72590497	      2.52068168	     -8.35213106	      4.26334911	      2.68627509	      4.11143375	    -16.57093294	     -5.62204811	     38.00713609	     45.87767666	      0.00000000	      0.00000000	     -6.71079198	    -11.90389614	     -4.79817032	     44.15707026	     46.15488842	      0.00000000	      0.00000000
     11.24571429	     -2.76701812	     -2.24416940	      2.99022216	      0.72192835	      0.92258840	      0.44089860	      5.48347671	     -3.44266451	     -9.14832592	     37.08365509	     37.08365509	     13.75602023	     -9.01508229	    -12.29413648	     23.05642634	     -3.05919998	     -0.22923518	     26.89454707	     26.89454707	      9.98024005	    -12.65768459	      2.32011798	     -8.50095920	      3.97453772	      2.36414527	      2.80154077	    -16.48984301	     -5.53800566	     37.32947687	     45.88983968	      0.00000000	      0.00000000	     -6.56322580	    -11.93874840	     -4.85729892	     44.21132202	     46.16355804	      0.00000000	      0.00000000
     11.25892857	     -2.84102661	     -2.12092470	      2.79587779	      0.72168814	      0.92318679	      0.43846146	      7.46810709	     -4.06410506	     -8.83316709	     40.96197087	     40.96197087	     11.67610349	    -11.01317017	    -13.02747507	     22.47206016	     -2.80798285	     -0.38616345	     26.61859167	     26.61859167	     10.31661546	    -12.73241553	      2.12690096	     -8.32712078	      3.74402735	      2.31948526	      1.25774320	    -16.36931581	     -5.36538374	     36.35040773	     45.90705379	      0.00000000	      0.00000000	     -6.34333766	    -11.96951324	     -4.90496172	     44.27841728	     46.17251825	      0.00000000	      0.00000000
     11.27214286	     -2.74008411	     -1.91753397	      2.65391052	      0.72134316	      0.92387129	      0.43595135	      9.35928586	     -4.82151313	     -8.69209063	     44.91758134	     44.91758134	      9.34423744	    -12.91571494	    -13.40156123	     21.73427635	     -2.48252377	     -0.60943704	     26.39525935	     26.39525935	     10.66668013	    -12.71335967	      1.91029075	     -8.45368429	      3.46144408	      2.04692127	     -0.00770461	    -16.30015789	     -5.24351886	     35.57240520	     45.92139532	      0.00000000	      0.00000000	     -6.06683612	    -12.05203471	     -4.91782477	     44.34265175	     46.17813911	      0.00000000	      0.00000000
     11.28535714	     -2.64399133	     -1.76989304	      2.52857147	      0.72092607	      0.92445634	      0.43354758	     11.30407107	     -5.49798396	     -8.59293323	     48.78352054	     48.78352054	      6.76254407	    -14.83971713	    -13.43371376	     21.01536011	     -2.20705860	     -0.75046212	     26.17256459	     26.17256459	     10.98467653	    -12.67772932	      1.68763458	     -8.51981119	      3.26612824	      1.76520639	     -1.27566985	    -16.20836062	     -5.12224987	     34.81241350	     45.93500092	      0.00000000	      0.00000000	     -5.80722091	    -12.14015812	     -4.90725384	     44.42826953	     46.18133732	      0.00000000	      0.00000000
     11.29857143	     -2.55674146	     -1.62493091	      2.39015661	      0.72037594	      0.92484127	      0.43123414	     13.30326312	     -6.18869282	     -8.55446277	     52.55696794	     52.55696794	      4.11143883	    -16.67413130	    -13.04439135	     20.31650783	     -1.93733839	     -0.88867967	     25.94976379	     25.94976379	     11.38781268	    -12.66338953	      1.41895923	     -8.65034664	      3.05771837	      1.43583051	     -2.50506685	    -16.12257911	     -5.01284119	     34.09319743	     45.94795751	      0.00000000	      0.00000000	     -5.50499133	    -12.24139886	     -4.87045618	     44.54507627	     46.18258689	      0.00000000	      0.00000000
     11.31178571	     -2.52979213	     -1.55771623	      2.18834813	      0.71974139	      0.92514018	      0.42913682	     15.47317869	     -6.69312555	     -8.36846131	     56.30521421	     56.30521421	      2.33193462	    -17.86335598	     -9.68065239	     19.67160852	     -1.76090089	     -1.04490396	     25.65200452	     25.65200452	     11.30782900	    -12.96250481	      0.35212604	     -8.64598149	      2.99850339	      1.54724762	     -3.67842073	    -15.99152935	     -4.65462974	     32.55969600	     45.97979002	      0.00000000	      0.00000000	     -4.95607530	    -12.53771620	     -3.83599484	     44.55639555	     46.09478056	      0.00000000	      0.00000000
     11.32500000	     -2.44935505	     -1.33135964	      1.99703617	      0.71907201	      0.92546408	      0.42697443	     17.44241344	     -7.53366278	     -8.43788002	     59.61632259	     59.61632259	      0.23558602	    -18.58856258	     -8.29243232	     18.97658068	     -1.43418640	     -1.31982581	     25.40645637	     25.40645637	     11.64725084	    -12.88296880	      0.15235016	     -8.76319092	      2.77080493	      1.14068713	     -4.72483212	    -15.83873771	     -4.61781825	     32.12263594	     45.98684212	      0.00000000	      0.00000000	     -4.72804375	    -12.69203488	     -3.78139384	     44.71374597	     46.09516232	      0.00000000	      0.00000000
     11.33821429	     -2.37244610	     -1.05918476	      1.79381760	      0.71837522	      0.92575543	      0.42488797	     19.38653737	     -8.37930506	     -8.43481128	     62.66170588	     62.66170588	     -1.20879870	    -18.90813793	     -5.91530285	     18.28689916	     -1.05403715	     -1.59740608	     25.15221933	     25.15221933	     11.92593725	    -12.82196769	     -0.04856335	     -8.86351822	      2.51387315	      0.87523567	     -5.81217737	    -15.70944867	     -4.57928332	     31.61914371	     45.99637318	      0.00000000	      0.00000000	     -4.34790721	    -12.85382735	     -3.68353970	     44.96437595	     46.09386670	      0.00000000	      0.00000000
     11.35142857	     -2.21619157	     -1.18662906	      1.60870833	      0.71762755	      0.92628600	      0.42341568	     21.42937311	     -8.23884354	     -7.97285394	     65.72926459	     65.72926459	      0.33993168	    -18.79768593	      5.50694595	     17.55655543	     -1.14769347	     -1.75818682	     24.92833479	     24.92833479	     12.06512753	    -12.80138221	     -0.81075595	     -9.07209159	      2.70614566	      0.81561793	     -6.86346387	    -15.56666891	     -4.82690088	     31.04388202	     46.03042142	      0.00000000	      0.00000000	     -3.86819532	    -13.20842250	     -2.41396787	     45.27097637	     45.99694639	      0.00000000	      0.00000000
     11.36464286	     -2.10898252	     -1.06495110	      1.35211790	      0.71691290	      0.92680835	      0.42178935	     23.02427624	     -8.69274060	     -7.89259463	     67.68686209	     67.68686209	     -0.78858426	    -19.04274928	      6.26822596	     16.79281199	     -0.96081830	     -2.04843331	     24.58276786	     24.58276786	     12.36628291	    -12.68687129	     -0.90574733	     -9.20767228	      2.62743614	      0.56239226	     -7.73205743	    -15.41024105	     -4.83546129	     30.64919415	     46.04035488	      0.00000000	      0.00000000	     -3.48841618	    -13.33769414	     -2.36034432	     45.50289217	     46.00103860	      0.00000000	      0.00000000
     11.37785714	     -1.97871478	     -1.10378941	      1.08793442	      0.71617151	      0.92750885	      0.42055602	     24.58136678	     -8.67631061	     -7.61430035	     69.33301317	     69.33301317	     -0.47530679	    -19.09514955	     10.55610152	     16.01682238	     -0.97768524	     -2.33490169	     24.24055555	     24.24055555	     12.53646071	    -12.55852071	     -1.25891918	     -9.37948884	      2.71429000	      0.65624581	     -8.63387610	    -15.23867566	     -5.21272403	     30.02995231	     46.08708636	      0.00000000	      0.00000000	     -2.93258207	    -13.59847067	     -1.52832901	     45.99201722	     45.95091630	      0.00000000	      0.00000000
     11.39107143	     -1.91459240	     -1.08681795	      0.77843132	      0.71546356	      0.92816401	      0.41946241	     25.94595165	     -8.69154292	     -7.36212380	     70.31095555	     70.31095555	     -0.83016231	    -19.17682754	     10.79971705	     15.22945851	     -0.92503062	     -2.62052939	     23.76625974	     23.76625974	     12.81921937	    -12.39027644	     -1.29043997	     -9.46674975	      2.74168106	      0.38371560	     -9.24761119	    -15.07155825	     -5.25580452	     29.74953034	     46.09679769	      0.00000000	      0.00000000	     -2.58220341	    -13.71779482	     -1.47259689	     46.22982791	     45.95462255	      0.00000000	      0.00000000
